<svg xmlns="http://www.w3.org/2000/svg" width="28" height="24"><g fill="none" fill-rule="evenodd"><path d="M-2-4h32v32H-2z"/><path fill="#6CADB5" fill-rule="nonzero" d="M14 5.333V0H.667v24h26.666V5.333H14zm-8 16H3.333v-2.666H6v2.666zM6 16H3.333v-2.667H6V16zm0-5.333H3.333V8H6v2.667zm0-5.334H3.333V2.667H6v2.666zm5.333 16H8.667v-2.666h2.666v2.666zm0-5.333H8.667v-2.667h2.666V16zm0-5.333H8.667V8h2.666v2.667zm0-5.334H8.667V2.667h2.666v2.666zm13.334 16H14v-2.666h2.667V16H14v-2.667h2.667v-2.666H14V8h10.667v13.333zM22 10.667h-2.667v2.666H22v-2.666zM22 16h-2.667v2.667H22V16z"/></g></svg>