<svg xmlns="http://www.w3.org/2000/svg" width="24" height="22"><g fill="none" fill-rule="evenodd"><path fill="#6CADB5" fill-rule="nonzero" d="M21.227 2.013A1.992 1.992 0 0 0 19.333.667H4.667c-.88 0-1.614.56-1.894 1.346L0 10v10.667C0 21.4.6 22 1.333 22h1.334C3.4 22 4 21.4 4 20.667v-1.334h16v1.334C20 21.4 20.6 22 21.333 22h1.334C23.4 22 24 21.4 24 20.667V10l-2.773-7.987zm-16.56 13.32c-1.107 0-2-.893-2-2 0-1.106.893-2 2-2 1.106 0 2 .894 2 2 0 1.107-.894 2-2 2zm14.666 0c-1.106 0-2-.893-2-2 0-1.106.894-2 2-2 1.107 0 2 .894 2 2 0 1.107-.893 2-2 2zM2.667 8.667l2-6h14.666l2 6H2.667z"/><path d="M-4-6h32v32H-4z"/></g></svg>