<svg xmlns="http://www.w3.org/2000/svg" xmlns:xlink="http://www.w3.org/1999/xlink" width="32" height="20" viewBox="0 0 32 20">
    <defs>
        <path id="a" d="M0 0h32v32H0z"/>
    </defs>
    <g fill="none" fill-rule="evenodd" transform="translate(0 -6)">
        <mask id="b" fill="#fff">
            <use xlink:href="#a"/>
        </mask>
        <path fill="#6CADB5" fill-rule="nonzero" d="M25.92 12.04l-5.373-5.373h-5.88v2.666h4.786L22.12 12H6.667C2.933 12 0 14.933 0 18.667c0 3.733 2.933 6.666 6.667 6.666 3.28 0 5.933-2.253 6.533-5.333h2.2l3.693-3.693a6.51 6.51 0 0 0-.426 2.36c0 3.733 2.933 6.666 6.666 6.666 3.734 0 6.667-2.933 6.667-6.666 0-3.534-2.627-6.36-6.08-6.627zM10.427 20c-.56 1.533-2.054 2.667-3.76 2.667-2.174 0-4-1.827-4-4 0-2.174 1.826-4 4-4 1.706 0 3.2 1.133 3.76 2.666h-3.76V20h3.76zm14.906 2.667c-2.213 0-4-1.787-4-4 0-2.214 1.787-4 4-4 2.214 0 4 1.786 4 4 0 2.213-1.786 4-4 4z" mask="url(#b)"/>
    </g>
</svg>
