<svg xmlns="http://www.w3.org/2000/svg" width="0" height="0">
  <defs>
    <symbol id="logo"  width="161" height="16" viewBox="0 0 161 16">
      <path fill="#FFF" fill-rule="evenodd" d="M11.206 0H0v3.196h4V16h3.206V3.196h4V0zm1.588 0v16h9.598v-3.206H16V9.598h4.794V6.402H16V3.196h6.392V0h-9.598zm19.037 0c-2.203 0-4.087.784-5.652 2.352C24.614 3.921 23.83 5.803 23.83 8c0 2.203.783 4.088 2.348 5.653C27.744 15.218 29.628 16 31.83 16c2.197 0 4.08-.782 5.648-2.347 1.568-1.565 2.352-3.45 2.352-5.653 0-2.197-.784-4.08-2.352-5.648C35.91.784 34.029 0 31.83 0zm0 3.196c1.317 0 2.447.471 3.39 1.414.943.943 1.414 2.073 1.414 3.39 0 1.323-.471 2.453-1.414 3.39-.943.936-2.073 1.404-3.39 1.404-1.323 0-2.453-.468-3.39-1.404-.936-.937-1.404-2.067-1.404-3.39 0-1.317.468-2.447 1.405-3.39.936-.943 2.066-1.414 3.39-1.414zM45.727 0v16h3.206V9.598h4.794V6.402h-4.794V3.196h6.392V0h-9.598zm11.037 16h3.206V0h-3.206v16zM69.658 0c-2.204 0-4.088.784-5.653 2.352C62.44 3.921 61.658 5.803 61.658 8c0 2.203.782 4.088 2.347 5.653C65.57 15.218 67.455 16 69.658 16c2.196 0 4.079-.782 5.647-2.347 1.568-1.565 2.353-3.45 2.353-5.653 0-.562-.053-1.095-.16-1.598h-7.84v3.196h4.526a4.823 4.823 0 0 1-1.737 2.298c-.82.599-1.75.898-2.79.898-1.323 0-2.453-.468-3.389-1.404-.936-.937-1.404-2.067-1.404-3.39 0-1.317.468-2.447 1.404-3.39.936-.943 2.066-1.414 3.39-1.414 1.31 0 2.441.47 3.394 1.41l2.263-2.264A8.354 8.354 0 0 0 72.76.63 7.715 7.715 0 0 0 69.658 0zm18.53 0v9.598a3.07 3.07 0 0 1-.942 2.258c-.629.625-1.38.938-2.253.938-.88 0-1.633-.313-2.259-.938a3.078 3.078 0 0 1-.937-2.258V0H78.59v9.598c0 1.767.625 3.275 1.876 4.526 1.25 1.25 2.759 1.876 4.526 1.876 1.76 0 3.267-.625 4.52-1.876 1.255-1.25 1.882-2.76 1.882-4.526V0h-3.206zm4.705 0v16h9.598v-3.206H96.1V9.598h4.794V6.402H96.1V3.196h6.392V0h-9.598zm11.038 16h3.205V0h-3.205v16zm4.893 0h3.206v-5.856L116.12 16h3.91l-3.613-5.171c1.052-.397 1.917-1.07 2.595-2.02a5.39 5.39 0 0 0 1.018-3.211c0-1.535-.55-2.852-1.648-3.95C117.284.549 115.964 0 114.422 0h-5.598v16zm3.206-8V3.196h2.392c.662 0 1.227.237 1.697.71s.705 1.037.705 1.692c0 .662-.235 1.227-.705 1.697S115.084 8 114.422 8h-2.392zm9.459-8v16h9.598v-3.206h-6.392V9.598h4.794V6.402h-4.794V3.196h6.392V0h-9.598zm14.243 0h-3.206v16h3.206c2.197 0 4.08-.782 5.648-2.347 1.568-1.565 2.352-3.45 2.352-5.653 0-2.197-.784-4.08-2.352-5.648C139.81.784 137.929 0 135.732 0zm0 12.794V3.196c1.317 0 2.445.471 3.385 1.414s1.41 2.073 1.41 3.39c0 1.323-.47 2.453-1.41 3.39-.94.936-2.068 1.404-3.385 1.404zM152.814 0c-2.204 0-4.088.784-5.653 2.352-1.565 1.569-2.347 3.451-2.347 5.648 0 2.203.782 4.088 2.347 5.653 1.565 1.565 3.45 2.347 5.653 2.347 2.197 0 4.08-.782 5.648-2.347 1.568-1.565 2.352-3.45 2.352-5.653 0-2.197-.784-4.08-2.352-5.648C156.893.784 155.01 0 152.814 0zm0 3.196c1.317 0 2.447.471 3.39 1.414.942.943 1.414 2.073 1.414 3.39 0 1.323-.472 2.453-1.415 3.39-.942.936-2.072 1.404-3.39 1.404-1.323 0-2.452-.468-3.389-1.404-.936-.937-1.404-2.067-1.404-3.39 0-1.317.468-2.447 1.404-3.39.937-.943 2.066-1.414 3.39-1.414z"/>
    </symbol>
    <symbol id="hamburguer" width="18" height="12" viewBox="0 0 18 12">
      <g fill="none" fill-rule="evenodd">
        <path d="M-3-6h24v24H-3z"/>
        <path fill="#FFF" fill-rule="nonzero" d="M0 12h18v-2H0v2zm0-5h18V5H0v2zm0-7v2h18V0H0z"/>
    </g>
    </symbol>
    <symbol id="close" width="14" height="14" viewBox="0 0 14 14">
      <g fill="none" fill-rule="evenodd">
        <path fill="#FFF" fill-rule="nonzero" d="M14 1.41L12.59 0 7 5.59 1.41 0 0 1.41 5.59 7 0 12.59 1.41 14 7 8.41 12.59 14 14 12.59 8.41 7z"/>
        <path d="M-5-5h24v24H-5z"/>
      </g>
    </symbol>
    <symbol id="car" width="24" height="22" viewBox="0 0 24 22">
      <g fill="none" fill-rule="evenodd">
        <path fill="#FFF" fill-rule="nonzero" d="M21.227 2.013A1.992 1.992 0 0 0 19.333.667H4.667c-.88 0-1.614.56-1.894 1.346L0 10v10.667C0 21.4.6 22 1.333 22h1.334C3.4 22 4 21.4 4 20.667v-1.334h16v1.334C20 21.4 20.6 22 21.333 22h1.334C23.4 22 24 21.4 24 20.667V10l-2.773-7.987zm-16.56 13.32c-1.107 0-2-.893-2-2 0-1.106.893-2 2-2 1.106 0 2 .894 2 2 0 1.107-.894 2-2 2zm14.666 0c-1.106 0-2-.893-2-2 0-1.106.894-2 2-2 1.107 0 2 .894 2 2 0 1.107-.893 2-2 2zM2.667 8.667l2-6h14.666l2 6H2.667z"/>
        <path d="M-4-6h32v32H-4z"/>
      </g>
    </symbol>
    <symbol id="more" width="12" height="8" viewBox="0 0 12 8">
      <g fill="none" fill-rule="evenodd">
        <path fill="#7D7D7D" fill-rule="nonzero" d="M10.59 7.41L6 2.83 1.41 7.41 0 6l6-6 6 6z"/>
        <path d="M-6 16h24V-8H-6z"/>
      </g>
    </symbol>
    <symbol id="smartphone" width="20" height="30" viewBox="0 0 20 30">
      <g fill="none" fill-rule="evenodd">
        <path d="M-6-1h32v32H-6z"/>
        <path fill="#FFF" fill-rule="nonzero" d="M16.667.347L3.333.333A2.663 2.663 0 0 0 .68 3v24a2.663 2.663 0 0 0 2.653 2.667h13.334c1.466 0 2.666-1.2 2.666-2.667V3c0-1.467-1.2-2.653-2.666-2.653zm0 23.986H3.333V5.667h13.334v18.666z"/>
      </g>
    </symbol>
    <symbol id="business" width="28" height="24" viewBox="0 0 28 24">
      <g fill="none" fill-rule="evenodd">
        <path d="M-2-4h32v32H-2z"/>
        <path fill="#FFF" fill-rule="nonzero" d="M14 5.333V0H.667v24h26.666V5.333H14zm-8 16H3.333v-2.666H6v2.666zM6 16H3.333v-2.667H6V16zm0-5.333H3.333V8H6v2.667zm0-5.334H3.333V2.667H6v2.666zm5.333 16H8.667v-2.666h2.666v2.666zm0-5.333H8.667v-2.667h2.666V16zm0-5.333H8.667V8h2.666v2.667zm0-5.334H8.667V2.667h2.666v2.666zm13.334 16H14v-2.666h2.667V16H14v-2.667h2.667v-2.666H14V8h10.667v13.333zM22 10.667h-2.667v2.666H22v-2.666zM22 16h-2.667v2.667H22V16z"/>
      </g>
    </symbol>
    <symbol id="health-white" width="24" height="24" viewBox="0 0 24 24">
      <g fill="none" fill-rule="evenodd">
        <path d="M-4-4h32v32H-4z"/>
        <path fill="#FFF" fill-rule="nonzero" d="M21.333 0H2.667A2.663 2.663 0 0 0 .013 2.667L0 21.333C0 22.8 1.2 24 2.667 24h18.666C22.8 24 24 22.8 24 21.333V2.667C24 1.2 22.8 0 21.333 0zM20 14.667h-5.333V20H9.333v-5.333H4V9.333h5.333V4h5.334v5.333H20v5.334z"/>
      </g>
    </symbol>
    <symbol id="smartphone-green" width="20" height="30" viewBox="0 0 20 30">
      <g fill="none" fill-rule="evenodd">
        <path d="M-6-1h32v32H-6z"/>
        <path fill="#6CADB5" fill-rule="nonzero" d="M16.667.347L3.333.333A2.663 2.663 0 0 0 .68 3v24a2.663 2.663 0 0 0 2.653 2.667h13.334c1.466 0 2.666-1.2 2.666-2.667V3c0-1.467-1.2-2.653-2.666-2.653zm0 23.986H3.333V5.667h13.334v18.666z"/>
      </g>
    </symbol>
    <symbol id="home" width="28" height="23" viewBox="0 0 28 23">
      <g fill="none" fill-rule="evenodd">
        <path fill="#FFF" fill-rule="nonzero" d="M11.333 22.667v-8h5.334v8h6.666V12h4L14 0 .667 12h4v10.667z"/>
        <path d="M-2-4h32v32H-2z"/>
      </g>
    </symbol>
    <symbol id="trip" width="28" height="26" viewBox="0 0 28 26">
      <g fill="none" fill-rule="evenodd">
        <path d="M-2-2h32v32H-2z"/>
        <path fill="#FFF" fill-rule="nonzero" d="M24.667 6h-4V3.333A2.657 2.657 0 0 0 18 .667h-8a2.657 2.657 0 0 0-2.667 2.666V6h-4A2.657 2.657 0 0 0 .667 8.667v14.666A2.657 2.657 0 0 0 3.333 26h21.334a2.657 2.657 0 0 0 2.666-2.667V8.667A2.657 2.657 0 0 0 24.667 6zM10 3.333h8V6h-8V3.333zm14.667 20H3.333v-2.666h21.334v2.666zm0-6.666H3.333v-8h4v2.666H10V8.667h8v2.666h2.667V8.667h4v8z"/>
      </g>
    </symbol>
    <symbol id="life" width="28" height="25" viewBox="0 0 28 25">
      <g fill="none" fill-rule="evenodd">
        <path d="M-2-4h32v32H-2z"/>
        <path fill="#FFF" fill-rule="nonzero" d="M14 24.467l-1.933-1.76C5.2 16.48.667 12.373.667 7.333.667 3.227 3.893 0 8 0c2.32 0 4.547 1.08 6 2.787C15.453 1.08 17.68 0 20 0c4.107 0 7.333 3.227 7.333 7.333 0 5.04-4.533 9.147-11.4 15.387L14 24.467z"/>
      </g>
    </symbol>
    <symbol id="home-green" width="28" height="23" viewBox="0 0 28 23">
      <g fill="none" fill-rule="evenodd">
        <path fill="#6CADB5" fill-rule="nonzero" d="M11.333 22.667v-8h5.334v8h6.666V12h4L14 0 .667 12h4v10.667z"/>
        <path d="M-2-4h32v32H-2z"/>
      </g>
    </symbol>
    <symbol id="bike" width="32" height="20" viewBox="0 0 32 20">
      <g fill="none" fill-rule="evenodd">
        <path fill="#FFF" fill-rule="nonzero" d="M25.92 12.04l-5.373-5.373h-5.88v2.666h4.786L22.12 12H6.667C2.933 12 0 14.933 0 18.667c0 3.733 2.933 6.666 6.667 6.666 3.28 0 5.933-2.253 6.533-5.333h2.2l3.693-3.693a6.51 6.51 0 0 0-.426 2.36c0 3.733 2.933 6.666 6.666 6.666 3.734 0 6.667-2.933 6.667-6.666 0-3.534-2.627-6.36-6.08-6.627zM10.427 20c-.56 1.533-2.054 2.667-3.76 2.667-2.174 0-4-1.827-4-4 0-2.174 1.826-4 4-4 1.706 0 3.2 1.133 3.76 2.666h-3.76V20h3.76zm14.906 2.667c-2.213 0-4-1.787-4-4 0-2.214 1.787-4 4-4 2.214 0 4 1.786 4 4 0 2.213-1.786 4-4 4z"/>
      </g>
    </symbol>
  </defs>
</svg>
