<svg xmlns="http://www.w3.org/2000/svg" width="28" height="26" viewBox="0 0 28 26">
    <g fill="none" fill-rule="evenodd">
        <path d="M-2-2h32v32H-2z"/>
        <path fill="#6CADB5" fill-rule="nonzero" d="M24.667 6h-4V3.333A2.657 2.657 0 0 0 18 .667h-8a2.657 2.657 0 0 0-2.667 2.666V6h-4A2.657 2.657 0 0 0 .667 8.667v14.666A2.657 2.657 0 0 0 3.333 26h21.334a2.657 2.657 0 0 0 2.666-2.667V8.667A2.657 2.657 0 0 0 24.667 6zM10 3.333h8V6h-8V3.333zm14.667 20H3.333v-2.666h21.334v2.666zm0-6.666H3.333v-8h4v2.666H10V8.667h8v2.666h2.667V8.667h4v8z"/>
    </g>
</svg>
