<svg xmlns="http://www.w3.org/2000/svg" xmlns:xlink="http://www.w3.org/1999/xlink" width="161" height="16" viewBox="0 0 161 16">
    <symbol id="logo">
      <path fill="#FFF" fill-rule="evenodd" d="M11.206 0H0v3.196h4V16h3.206V3.196h4V0zm1.588 0v16h9.598v-3.206H16V9.598h4.794V6.402H16V3.196h6.392V0h-9.598zm19.037 0c-2.203 0-4.087.784-5.652 2.352C24.614 3.921 23.83 5.803 23.83 8c0 2.203.783 4.088 2.348 5.653C27.744 15.218 29.628 16 31.83 16c2.197 0 4.08-.782 5.648-2.347 1.568-1.565 2.352-3.45 2.352-5.653 0-2.197-.784-4.08-2.352-5.648C35.91.784 34.029 0 31.83 0zm0 3.196c1.317 0 2.447.471 3.39 1.414.943.943 1.414 2.073 1.414 3.39 0 1.323-.471 2.453-1.414 3.39-.943.936-2.073 1.404-3.39 1.404-1.323 0-2.453-.468-3.39-1.404-.936-.937-1.404-2.067-1.404-3.39 0-1.317.468-2.447 1.405-3.39.936-.943 2.066-1.414 3.39-1.414zM45.727 0v16h3.206V9.598h4.794V6.402h-4.794V3.196h6.392V0h-9.598zm11.037 16h3.206V0h-3.206v16zM69.658 0c-2.204 0-4.088.784-5.653 2.352C62.44 3.921 61.658 5.803 61.658 8c0 2.203.782 4.088 2.347 5.653C65.57 15.218 67.455 16 69.658 16c2.196 0 4.079-.782 5.647-2.347 1.568-1.565 2.353-3.45 2.353-5.653 0-.562-.053-1.095-.16-1.598h-7.84v3.196h4.526a4.823 4.823 0 0 1-1.737 2.298c-.82.599-1.75.898-2.79.898-1.323 0-2.453-.468-3.389-1.404-.936-.937-1.404-2.067-1.404-3.39 0-1.317.468-2.447 1.404-3.39.936-.943 2.066-1.414 3.39-1.414 1.31 0 2.441.47 3.394 1.41l2.263-2.264A8.354 8.354 0 0 0 72.76.63 7.715 7.715 0 0 0 69.658 0zm18.53 0v9.598a3.07 3.07 0 0 1-.942 2.258c-.629.625-1.38.938-2.253.938-.88 0-1.633-.313-2.259-.938a3.078 3.078 0 0 1-.937-2.258V0H78.59v9.598c0 1.767.625 3.275 1.876 4.526 1.25 1.25 2.759 1.876 4.526 1.876 1.76 0 3.267-.625 4.52-1.876 1.255-1.25 1.882-2.76 1.882-4.526V0h-3.206zm4.705 0v16h9.598v-3.206H96.1V9.598h4.794V6.402H96.1V3.196h6.392V0h-9.598zm11.038 16h3.205V0h-3.205v16zm4.893 0h3.206v-5.856L116.12 16h3.91l-3.613-5.171c1.052-.397 1.917-1.07 2.595-2.02a5.39 5.39 0 0 0 1.018-3.211c0-1.535-.55-2.852-1.648-3.95C117.284.549 115.964 0 114.422 0h-5.598v16zm3.206-8V3.196h2.392c.662 0 1.227.237 1.697.71s.705 1.037.705 1.692c0 .662-.235 1.227-.705 1.697S115.084 8 114.422 8h-2.392zm9.459-8v16h9.598v-3.206h-6.392V9.598h4.794V6.402h-4.794V3.196h6.392V0h-9.598zm14.243 0h-3.206v16h3.206c2.197 0 4.08-.782 5.648-2.347 1.568-1.565 2.352-3.45 2.352-5.653 0-2.197-.784-4.08-2.352-5.648C139.81.784 137.929 0 135.732 0zm0 12.794V3.196c1.317 0 2.445.471 3.385 1.414s1.41 2.073 1.41 3.39c0 1.323-.47 2.453-1.41 3.39-.94.936-2.068 1.404-3.385 1.404zM152.814 0c-2.204 0-4.088.784-5.653 2.352-1.565 1.569-2.347 3.451-2.347 5.648 0 2.203.782 4.088 2.347 5.653 1.565 1.565 3.45 2.347 5.653 2.347 2.197 0 4.08-.782 5.648-2.347 1.568-1.565 2.352-3.45 2.352-5.653 0-2.197-.784-4.08-2.352-5.648C156.893.784 155.01 0 152.814 0zm0 3.196c1.317 0 2.447.471 3.39 1.414.942.943 1.414 2.073 1.414 3.39 0 1.323-.472 2.453-1.415 3.39-.942.936-2.072 1.404-3.39 1.404-1.323 0-2.452-.468-3.389-1.404-.936-.937-1.404-2.067-1.404-3.39 0-1.317.468-2.447 1.404-3.39.937-.943 2.066-1.414 3.39-1.414z"/>
    </symbol>
</svg>
